<svg xmlns="http://www.w3.org/2000/svg" width="28" height="28" id="beer"><circle cx="14" cy="14" r="14" fill="#ef4c45" fill-rule="evenodd"></circle><path fill="#fff" d="M9.85 6.5a2.789 2.789 0 0 0-2.8 2.8c0 .94.48 1.706 1.144 2.206a6.022 6.022 0 0 0-.244 1.693c0 .224.04.55.094.864-.579.653-.994 1.46-.994 2.337 0 1.36.859 2.535 2.119 3.334 1.26.8 2.945 1.266 4.781 1.266 1.836 0 3.521-.466 4.781-1.266 1.26-.799 2.12-1.973 2.12-3.334 0-.877-.416-1.684-.995-2.337.055-.314.094-.64.094-.864 0-.562-.085-1.106-.234-1.625.713-.496 1.234-1.29 1.234-2.273 0-1.557-1.244-2.801-2.8-2.801-.912 0-1.694.398-2.206 1.055a5.87 5.87 0 0 0-1.994-.356c-.662 0-1.3.112-1.9.313-.535-.66-1.366-1.012-2.2-1.012Zm0 1c.444 0 .883.166 1.212.441a6.002 6.002 0 0 0-2.489 2.6 1.68 1.68 0 0 1-.523-1.24c0-1.044.757-1.801 1.8-1.801Zm8.3 0c1.043 0 1.8.757 1.8 1.8 0 .558-.232.995-.603 1.317a6.125 6.125 0 0 0-2.48-2.642c.307-.31.724-.475 1.282-.475Zm-4.2.7c2.722 0 5 2.277 5 5 0 .3-.016.668-.074.841l-.098.295.22.217c.52.521.853 1.214.853 1.847 0 .94-.592 1.815-1.657 2.49-1.065.676-2.58 1.11-4.244 1.11-1.664 0-3.179-.434-4.244-1.11-1.065-.675-1.656-1.55-1.656-2.49 0-.633.332-1.326.853-1.847l.22-.217-.099-.295c-.057-.173-.074-.542-.074-.842 0-2.831 2.267-5 5-5zm-2.3 2.6c-.46 0-.832.289-1.057.64-.226.35-.342.786-.342 1.26 0 .473.116.91.342 1.26.225.352.598.64 1.056.64.46 0 .834-.288 1.059-.64.225-.35.342-.787.342-1.26 0-.474-.117-.91-.342-1.26-.225-.351-.6-.64-1.059-.64zm4.601 0c-.459 0-.833.289-1.059.64-.225.35-.341.786-.341 1.26 0 .473.116.91.341 1.26.226.352.6.64 1.059.64.459 0 .831-.288 1.057-.64.225-.35.341-.787.341-1.26 0-.474-.116-.91-.341-1.26-.226-.351-.598-.64-1.057-.64zm-4.602 1c.039 0 .117.024.217.18.1.157.184.42.184.72 0 .299-.083.564-.184.72-.1.156-.178.18-.217.18-.038 0-.114-.024-.214-.18-.1-.156-.184-.421-.184-.72 0-.3.083-.563.184-.72.1-.156.176-.18.214-.18zm4.602 0c.038 0 .115.024.215.18.1.157.183.42.183.72 0 .299-.083.564-.183.72-.1.156-.177.18-.215.18-.038 0-.117-.024-.217-.18-.1-.156-.183-.421-.183-.72 0-.3.083-.563.183-.72.1-.156.179-.18.217-.18zm-2.3 2.8c-.768 0-1.401.633-1.401 1.4 0 .767.633 1.4 1.4 1.4.767 0 1.4-.633 1.4-1.4 0-.767-.633-1.4-1.4-1.4zm0 1c.226 0 .4.173.4.4 0 .227-.174.4-.4.4a.393.393 0 0 1-.401-.4c0-.227.173-.4.4-.4zm3.335 1.26c-.209-.048-.385.09-.535.24-.7.8-1.8 1.2-2.9 1.2-1.1 0-2.1-.4-2.9-1.2-.1-.2-.4-.2-.6 0-.2.1-.2.4 0 .6 1 1 2.2 1.5 3.6 1.5s2.599-.5 3.599-1.5c.2-.2.265-.472-.043-.725a.536.536 0 0 0-.22-.116z"></path></svg>