<svg xmlns="http://www.w3.org/2000/svg" width="28" height="28" id="folder"><circle cx="14" cy="14" r="14" fill="#1d67b1"></circle><path fill="#fff" d="M9.5 7c-.411 0-.802.146-1.078.422A1.516 1.516 0 0 0 8 8.5v10c0 .411.146.802.422 1.078S9.089 20 9.5 20h10c.411 0 .802-.146 1.078-.422S21 18.911 21 18.5v-8c0-.411-.146-.802-.422-1.078A1.516 1.516 0 0 0 19.5 9H14v-.5c0-.411-.146-.802-.422-1.078A1.516 1.516 0 0 0 12.5 7h-3zm0 1h3c.189 0 .297.055.371.129.074.074.129.182.129.371V9c0 .261.095.528.283.717.189.188.456.283.717.283h5.5c.189 0 .297.055.371.129.074.074.129.182.129.371v.582a1.645 1.645 0 0 0-.5-.082h-8c-.411 0-.802.146-1.078.422A1.516 1.516 0 0 0 10 12.5v6c0 .189-.055.297-.129.371-.074.074-.182.129-.371.129s-.297-.055-.371-.129C9.055 18.797 9 18.69 9 18.5v-10c0-.189.055-.297.129-.371C9.203 8.055 9.31 8 9.5 8Zm2 4h8c.189 0 .297.055.371.129.074.074.129.182.129.371v6c0 .189-.055.297-.129.371-.074.074-.182.129-.371.129h-8.582c.05-.16.082-.327.082-.5v-6c0-.189.055-.297.129-.371.074-.074.182-.129.371-.129Z" color="#000" font-family="sans-serif" font-weight="400" overflow="visible" style="line-height:normal;text-indent:0;text-align:start;text-decoration-line:none;text-decoration-style:solid;text-decoration-color:#000;text-transform:none;block-progression:tb;isolation:auto;mix-blend-mode:normal"></path></svg>