<svg xmlns="http://www.w3.org/2000/svg" width="28" height="28" id="home"><circle cx="14" cy="14" r="14" fill="#ffa40b" fill-rule="evenodd"></circle><path fill="#fff" d="M13.476 5.95c-.26 0-.536.078-.754.296L7.33 11.24l-.008.006c-.318.318-.412.815-.23 1.178.166.333.508.533.886.564L7.976 13v7c0 .261.095.528.283.717.189.188.456.283.717.283h3c.261 0 .528-.095.717-.283.189-.189.283-.456.283-.717v-2.9c0 .016.007-.025.041-.059.034-.034.075-.041.059-.041h.8c-.016 0 .025.007.06.041.033.034.04.075.04.059V20c0 .261.095.528.283.717.189.188.456.283.717.283h3c.261 0 .529-.095.717-.283.189-.189.283-.456.283-.717v-7l-.002-.012c.378-.03.72-.23.887-.564.181-.363.087-.86-.23-1.178l-.008-.006-5.393-4.994a1.041 1.041 0 0 0-.754-.297Zm0 1c.04 0 .065.021.047.003l.006.008 5.395 4.992c.082.082.036.036.042.024.007-.013-.006.023-.09.023h-10.8c-.084 0-.096-.036-.09-.023.006.012-.04.058.043-.024l5.394-4.992.006-.008c-.017.018.008-.004.047-.004zM8.976 13h9v7h-3v-2.9c0-.317-.143-.575-.334-.766a1.073 1.073 0 0 0-.765-.334h-.801c-.317 0-.575.143-.766.334a1.073 1.073 0 0 0-.334.766V20h-3v-7z" color="#000" font-family="sans-serif" font-weight="400" overflow="visible" style="line-height:normal;text-indent:0;text-align:start;text-decoration-line:none;text-decoration-style:solid;text-decoration-color:#000;text-transform:none;block-progression:tb;isolation:auto;mix-blend-mode:normal"></path></svg>