<svg xmlns="http://www.w3.org/2000/svg" width="28" height="28" id="laptop"><circle cx="14" cy="14" r="14" fill="#1d67b1"></circle><path fill="#fff" d="M8.5 7.65c-.411 0-.802.146-1.078.422A1.516 1.516 0 0 0 7 9.15v7c0 .41.146.802.422 1.078s.667.422 1.078.422H12v2h-1.5a.5.5 0 1 0 0 1h7a.5.5 0 1 0 0-1H16v-2h3.5c.411 0 .802-.146 1.078-.422S21 16.56 21 16.15v-7c0-.411-.146-.802-.422-1.078A1.516 1.516 0 0 0 19.5 7.65h-11zm0 1h11c.189 0 .297.055.371.129.074.074.129.182.129.37v5.5H8v-5.5c0-.188.055-.296.129-.37.074-.074.182-.13.371-.13Zm-.5 7h12v.5c0 .189-.055.297-.129.37-.074.075-.182.13-.371.13h-11c-.189 0-.297-.055-.371-.13-.074-.073-.129-.181-.129-.37v-.5zm5 2h2v2h-2v-2z" color="#000" font-family="sans-serif" font-weight="400" overflow="visible" style="line-height:normal;text-indent:0;text-align:start;text-decoration-line:none;text-decoration-style:solid;text-decoration-color:#000;text-transform:none;block-progression:tb;isolation:auto;mix-blend-mode:normal"></path></svg>