<svg xmlns="http://www.w3.org/2000/svg" width="28" height="28" id="mirror"><circle cx="14" cy="14" r="14" fill="#1d67b1"></circle><path fill="#fff" d="M14 6c-2.8 0-5 2.2-5 5H8c0-.3-.2-.5-.5-.5s-.5.2-.5.5a6.95 6.95 0 0 0 6.504 6.977c0 .008-.004.014-.004.023v3h-2c-.3 0-.5.2-.5.5s.2.5.5.5h5c.3 0 .5-.2.5-.5s-.2-.5-.5-.5h-2v-3c0-.009-.004-.015-.004-.023A6.95 6.95 0 0 0 21 11c0-.3-.2-.5-.5-.5s-.5.2-.5.5h-1c0-2.8-2.2-5-5-5Zm0 1c2.2 0 4 1.8 4 4s-1.8 4-4 4-4-1.8-4-4 1.8-4 4-4zm1.45 1.55a.49.49 0 0 0-.35.15l-2.5 2.5c-.2.2-.2.5 0 .7.1.1.3.1.4.1.1 0 .3 0 .4-.1l2.4-2.5c.2-.2.2-.5 0-.7a.495.495 0 0 0-.35-.15zm1 1.5a.49.49 0 0 0-.35.15l-1 1c-.2.2-.2.5 0 .7.1.1.3.1.4.1.1 0 .3 0 .3-.1l1-1c.2-.2.2-.5 0-.7a.495.495 0 0 0-.35-.15zm-7.356 1.934C9.54 14.3 11.538 16 14 16c2.457 0 4.45-1.693 4.902-4h1.006c-.48 2.827-2.95 5-5.908 5-2.959 0-5.428-2.173-5.908-5H9c.034 0 .062-.01.094-.016zM14.5 12a.5.5 0 0 0-.5.5.5.5 0 0 0 .5.5.5.5 0 0 0 .5-.5.5.5 0 0 0-.5-.5Z"></path></svg>