<svg xmlns="http://www.w3.org/2000/svg" width="28" height="28" id="plant"><circle cx="14" cy="14" r="14" fill="#50b748" fill-rule="evenodd"></circle><path fill="#fff" d="M12.492 5.03a1.014 1.014 0 0 0-.348.054.926.926 0 0 0-.537.451c-.569.929-.677 2.073-.345 3.18.343 1.144 1.147 1.939 2.013 2.48l.02.012.021.012c.25.124.501.112.719.039a.923.923 0 0 0 .553-.463c.444-.89.676-2.021.332-3.168-.343-1.143-1.15-1.939-2.016-2.48l-.02-.012-.02-.012a.875.875 0 0 0-.372-.094zm-.037 1.033c.691.45 1.26 1.03 1.506 1.851.248.827.088 1.662-.244 2.36-.688-.45-1.253-1.029-1.498-1.846-.262-.872-.168-1.703.236-2.365zm4.984 4.107c-1.048 0-2.152.447-2.953 1.248-.332.332-.58.696-.775 1.078a4.15 4.15 0 0 0-.717-.978c-.801-.801-1.905-1.246-2.953-1.246-.261 0-.53.083-.746.275-.216.192-.356.5-.356.824 0 1.048.464 2.07 1.248 2.854.576.576 1.27.99 2.053 1.166v.707c-.928-.77-2.04-1.127-3.2-1.127-.26 0-.527.095-.716.283a1.018 1.018 0 0 0-.283.717c0 1.221.44 2.548 1.445 3.553a4.842 4.842 0 0 0 2.754 1.398v.549c0 .411.146.802.422 1.078s.667.422 1.078.422c.411 0 .802-.146 1.078-.422s.422-.667.422-1.078v-.586c.93-.18 1.8-.61 2.553-1.361 1.005-1.005 1.447-2.332 1.447-3.553 0-.261-.095-.528-.283-.717a1.018 1.018 0 0 0-.717-.283c-1.078 0-2.114.313-3 .974v-.554c.783-.177 1.477-.59 2.053-1.166.784-.784 1.248-1.82 1.248-2.953 0-.317-.143-.577-.334-.768a1.078 1.078 0 0 0-.768-.334zm0 1c-.016 0 .027.007.06.041.035.034.042.077.042.06 0 .867-.34 1.63-.955 2.247-.416.416-.865.704-1.356.855-.021-.374-.158-.727-.412-.98a1.36 1.36 0 0 0-.314-.227 3.24 3.24 0 0 1 .69-1.04c.598-.6 1.493-.956 2.245-.956zm-7.398.102c.752 0 1.647.354 2.246.953.29.29.495.608.656.959-.102.059-.198.125-.281.209-.254.253-.39.606-.412.98-.49-.15-.94-.44-1.356-.855-.615-.616-.955-1.395-.955-2.147 0-.075.01-.068.02-.076a.145.145 0 0 1 .082-.023zm3.7 2.699c.188 0 .296.055.37.129.074.074.13.182.13.37v7c0 .19-.056.298-.13.372-.074.074-.182.129-.37.129-.19 0-.298-.055-.372-.129-.074-.074-.129-.182-.129-.371v-7c0-.095.014-.169.037-.229a.4.4 0 0 1 .092-.142c.024-.024.06-.04.092-.059l.28-.07zm-4.7 2c1.089 0 2.037.346 2.846 1.154l.3.299a.5.5 0 0 0 .053.047v2.44c-.75-.139-1.418-.466-2.047-1.094-.795-.796-1.152-1.867-1.152-2.846Zm9.2 0c0 .979-.36 2.05-1.155 2.846-.573.573-1.177.897-1.846 1.056v-2.595l.154-.153c.809-.808 1.757-1.154 2.846-1.154z" color="#000" font-family="sans-serif" font-weight="400" overflow="visible" style="line-height:normal;text-indent:0;text-align:start;text-decoration-line:none;text-decoration-style:solid;text-decoration-color:#000;text-transform:none;block-progression:tb;isolation:auto;mix-blend-mode:normal"></path></svg>