<svg xmlns="http://www.w3.org/2000/svg" width="28" height="28" id="tool"><circle cx="14" cy="14" r="14" fill="#ffa40b" fill-rule="evenodd"></circle><path fill="#fff" d="M18.5 7.914a2.51 2.51 0 0 0-2.5 2.5c0 .153.018.302.045.447l-1.895 1.895-1.048-1.05.474-.46.024-.033c.42-.56.459-1.264.117-1.778l-.028-.04-1.06-1.06-.03-.02c-.28-.21-.62-.323-.95-.321a1.267 1.267 0 0 0-.903.365L8.29 10.82l-.037.071c-.1.2-.252.456-.252.823v1.4c0 .367.152.624.252.824l.037.073.283.283.028.021c.56.42 1.357.45 1.853-.047l.496-.478 1.053 1.115-1.156 1.156c-.115-.016-.23-.033-.346-.033-.633 0-1.266.244-1.754.733a2.466 2.466 0 0 0 0 3.507 2.466 2.466 0 0 0 3.508 0 2.46 2.46 0 0 0 .7-2.1l1.146-1.146 3.546 3.545a1.5 1.5 0 0 0 2.108 0 1.497 1.497 0 0 0 0-2.105l-3.547-3.547 2.027-2.027c.089.01.175.027.266.027a2.51 2.51 0 0 0 2.5-2.5c0-.411-.127-.759-.227-1.059a.5.5 0 0 0-.826-.195l-.955.953H18.7V9.92l.955-.953a.5.5 0 0 0-.13-.801 2.297 2.297 0 0 0-1.024-.252Zm-6.826 1.072a.58.58 0 0 1 .32.127l.889.889c.055.09.085.367-.08.6L9.75 13.555l-.004.004c-.102.102-.303.125-.539-.046l-.084-.084A1.71 1.71 0 0 1 9 13.113v-1.4c0-.028.053-.164.123-.317l2.33-2.33a.294.294 0 0 1 .22-.08zm6.47.076-.298.297a.5.5 0 0 0-.147.354v.9a.5.5 0 0 0 .5.5h1a.5.5 0 0 0 .354-.146l.373-.371c-.102.728-.67 1.318-1.426 1.318a1.493 1.493 0 0 1-1.42-1.037l-.05-.178a1.505 1.505 0 0 1-.03-.285c0-.689.511-1.176 1.145-1.352zm-1.677 2.791c.192.27.434.496.715.672l-4.616 4.615c-.067-.1-.149-.191-.232-.283a.513.513 0 0 0-.063-.076c-.006-.007-.01-.015-.017-.021a2.532 2.532 0 0 0-.381-.313l4.594-4.594zm-4.067.567 1.043 1.043-.732.732-1.014-1.072.703-.703zm3.1 3.2 3.547 3.548c.223.223.223.468 0 .691-.223.223-.47.223-.693 0l-3.547-3.545.693-.693Zm-5 1.38c.038 0 .077.008.115.012l.227.076c.193.064.45.225.73.41.049.05.093.103.133.156.069.114.142.281.22.518l.077.226c.036.406-.11.818-.455 1.162-.623.624-1.47.624-2.094 0-.623-.623-.623-1.47 0-2.093.312-.312.68-.467 1.047-.467Zm0 .914a.6.6 0 0 0-.6.6.6.6 0 0 0 .6.6.6.6 0 0 0 .6-.6.6.6 0 0 0-.6-.6Z" color="#000" font-family="sans-serif" font-weight="400" overflow="visible" style="line-height:normal;text-indent:0;text-align:start;text-decoration-line:none;text-decoration-style:solid;text-decoration-color:#000;text-transform:none;block-progression:tb;isolation:auto;mix-blend-mode:normal"></path></svg>